<svg width="63" height="70" viewBox="0 0 63 70" fill="none" xmlns="http://www.w3.org/2000/svg">
<path d="M60.0469 26.8765V28.2674C60.0469 32.6404 59.06 36.9453 57.1744 40.7978C55.2888 44.6503 52.5632 47.9303 49.2409 50.3451L38.3906 58.2309L34.4531 61.0923L31.5 63.2393L30.5156 62.5317L27.5625 60.4077L26.1475 59.3909L15.5371 51.7629L14.143 50.761L13.8588 50.5557C10.5087 48.147 7.75774 44.8611 5.85386 40.9944C3.94998 37.1276 2.9531 32.8016 2.95313 28.4064V25.2831C2.9532 21.852 3.84488 18.492 5.52357 15.5973C6.84733 13.3138 8.67475 11.4338 10.8366 10.1313C12.9984 8.82885 15.4248 8.14609 17.891 8.14624H18.2638C20.5397 8.14636 22.7843 8.72795 24.8198 9.84498C26.8554 10.962 28.626 12.5838 29.9914 14.5819L31.5 16.7883L33.0086 14.5819C34.4598 12.4582 36.3674 10.7616 38.5612 9.64342C40.755 8.52521 43.1669 8.02014 45.5818 8.17322C47.9966 8.3263 50.3395 9.13278 52.4014 10.5207C54.4632 11.9087 56.1801 13.8351 57.3989 16.128C59.1324 19.3907 60.0461 23.0997 60.0469 26.8765V26.8765Z" fill="#5D62B5"/>
<path d="M34.4531 51.8966V61.0787V61.0922L38.3906 58.2309V48.5208L34.4531 51.8966Z" fill="#EA9D2D"/>
<path d="M44.2969 23.2698V25.9705C44.297 26.3251 44.2334 26.6764 44.1097 27.0041C43.9861 27.3318 43.8048 27.6295 43.5763 27.8803C43.3477 28.1311 43.0764 28.3301 42.7778 28.4657C42.4792 28.6014 42.1591 28.6712 41.8359 28.6711H39.375V35.1526L39.0147 36.2345L39.6383 37.3131L40.1182 41.2615C40.2362 42.228 40.2733 43.2043 40.2289 44.1782C40.145 46.0294 39.4977 47.7962 38.3906 49.196L34.4531 52.4367V61.0923L31.5 63.2393L30.5156 62.5317V54.5972L26.1474 59.3909L15.5371 51.7629L23.625 39.4737L25.5937 36.2329L28.1716 33.404L29.475 33.0538L29.5312 31.9119V28.9034C29.5314 25.9876 30.587 23.1913 32.4659 21.1296C33.1084 20.4252 33.9793 20.0294 34.8875 20.0291H37.0186C37.8974 20.0293 38.7401 20.4125 39.3614 21.0945L41.3437 23.2698H44.2969Z" fill="#FBB540"/>
<path d="M35.4375 23.2698H37.4062V25.4303H35.4375V23.2698Z" fill="#985713"/>
<path d="M39.6387 37.3132H38.2187C36.2375 37.3104 34.2838 36.8043 32.5105 35.8346L28.1719 33.4041L29.5315 31.912V31.7405L33.3989 33.9064C34.8963 34.7246 36.546 35.1512 38.2187 35.1527H39.3753L39.6387 37.3132Z" fill="#5D62B5"/>
<path d="M31.745 32.992H29.5312V30.8315H31.745C31.941 30.8313 32.129 30.7457 32.2676 30.5935C32.4062 30.4414 32.4842 30.2351 32.4844 30.02V26.5105H34.4531V30.02C34.4523 30.8079 34.1667 31.5633 33.659 32.1205C33.1513 32.6777 32.463 32.9911 31.745 32.992V32.992Z" fill="#985713"/>
<path d="M31.5001 39.4737V41.6342C31.4999 42.4936 31.1887 43.3178 30.6349 43.9255C30.0811 44.5332 29.3301 44.8747 28.5469 44.8749V48.8044C28.5473 49.7642 28.2883 50.7027 27.8025 51.501L26.5782 53.517V56.7577L26.9362 57.5436L27.234 58.1985L27.5626 58.9183V60.4077L26.1475 59.3909L15.5372 51.7629L14.1431 50.761L19.6876 41.6342V38.253C19.6876 38.1706 19.6888 38.0869 19.6912 38.0045C19.7536 36.4246 20.2998 34.9141 21.2416 33.7172L22.6407 31.9119L23.6251 36.2329H25.9821C26.4683 36.2329 26.9468 36.3647 27.3754 36.6165C27.8039 36.8683 28.1692 37.2324 28.4387 37.6764C28.7749 38.2292 29.2302 38.6824 29.7642 38.9959C30.2982 39.3094 30.8944 39.4735 31.5001 39.4737Z" fill="#E4E4E2"/>
<path d="M24.6094 39.4736H26.5781V41.6341H24.6094V39.4736Z" fill="#29C3BE"/>
</svg>
