<svg width="63" height="70" viewBox="0 0 63 70" fill="none" xmlns="http://www.w3.org/2000/svg">
<path d="M48.2344 59.9984V50.2761H54.1406V62.1589C54.1406 63.3049 53.7258 64.404 52.9874 65.2144C52.2489 66.0247 51.2474 66.48 50.2031 66.48H48.2344V59.9984Z" fill="#F6BB92"/>
<path d="M52.8789 43.7947L53.8269 41.2341L54.6677 38.963C55.1181 37.7418 55.2393 36.3953 55.0157 35.0953C54.7921 33.7953 54.2339 32.6007 53.4123 31.6639C52.3157 30.4133 51.6997 28.7174 51.6998 26.9491V20.7493H27.0505V26.9496C27.0505 28.7179 26.4345 30.4138 25.3379 31.6643C24.5163 32.601 23.9581 33.7955 23.7344 35.0955C23.5107 36.3954 23.6317 37.7418 24.082 38.963L24.972 41.3766L52.8789 43.7947Z" fill="#834B10"/>
<path d="M54.1406 44.9645C54.1406 43.4302 53.6447 41.9457 52.741 40.775C51.8373 39.6043 50.5844 38.8234 49.2053 38.5712L48.2344 38.3936L43.1507 37.4638L39.375 41.6344L35.5596 37.4316L28.5469 38.3936V66.4803H48.2344V57.8382C49.1248 56.8606 49.687 55.5807 49.8292 54.2073C49.9713 52.834 49.6851 51.4483 49.0172 50.2764H54.1406V44.9645Z" fill="#5D62B5"/>
<path d="M52.5 26.5105H26.25V18.3769C26.25 14.422 27.6328 10.6291 30.0942 7.83264C32.5556 5.03614 35.894 3.46509 39.375 3.46509C42.856 3.46509 46.1944 5.03614 48.6558 7.83264C51.1172 10.6291 52.5 14.422 52.5 18.3769V26.5105Z" fill="#834B10"/>
<path d="M47.25 18.9488V17.8686L46.2656 12.4673H32.4844L31.5 17.8686V18.9488C30.7168 18.9488 29.9656 19.2903 29.4118 19.898C28.858 20.5058 28.5469 21.3301 28.5469 22.1896C28.5469 23.0491 28.858 27.3432 29.4118 27.9509C29.9656 28.5587 29.6863 27.7741 30.4695 27.7741L30.1875 27.9509H31.5C31.5 29.9565 33.2103 30.4395 34.5026 31.8576C35.7948 33.2757 37.5475 34.0724 39.375 34.0724C41.2025 34.0724 42.9552 33.2757 44.2474 31.8576C45.5397 30.4395 46.2656 29.7796 46.2656 27.7741L47.25 27.9509H48.5625C49.3457 27.9509 48.7844 28.3819 49.3382 27.7741C49.892 27.1663 50.2031 23.0491 50.2031 22.1896C50.2031 21.3301 49.892 20.5058 49.3382 19.898C48.7844 19.2903 48.0332 18.9488 47.25 18.9488Z" fill="#F6BB92"/>
<path d="M38.3906 45.7595V66.4801H16.3652C17.0995 65.2258 17.9542 64.0614 18.9148 63.0071L18.9874 62.9274C20.7474 60.9992 22.1554 58.7194 23.1353 56.2109C23.5216 55.2225 23.9068 54.2341 24.1873 53.5171C24.442 52.8648 24.6094 52.4368 24.6094 52.4368H21.7768C20.8989 52.436 20.0464 52.1135 19.3545 51.5206C18.6626 50.9276 18.1709 50.0981 17.9575 49.1636L17.4727 47.0355L17.3459 46.4792C17.2734 46.1607 17.2679 45.8282 17.33 45.5071C17.392 45.1859 17.52 44.8845 17.7041 44.6258C17.8881 44.367 18.1236 44.1576 18.3924 44.0137C18.6612 43.8697 18.9565 43.7948 19.2556 43.7948H22.6406C23.2753 41.7032 24.5712 39.9299 26.2939 38.7959L26.7246 38.5137C27.8317 37.785 29.0883 37.3745 30.3783 37.32C31.6683 37.2654 32.95 37.5687 34.1049 38.2017L34.148 38.226C35.4228 38.9256 36.495 40.0009 37.2443 41.3315C37.9937 42.662 38.3906 44.1953 38.3906 45.7595Z" fill="#4B4B4B"/>
<path d="M38.3906 45.9552V49.0204C38.3906 49.7006 38.1956 50.3635 37.8332 50.9153C37.4707 51.4671 36.9593 51.8797 36.3713 52.0948C35.7652 52.3165 35.1098 52.3165 34.5037 52.0948C33.9157 51.8797 33.4043 51.4671 33.0418 50.9153C32.6794 50.3635 32.4844 49.7006 32.4844 49.0204V43.7947H36.4219L38.3906 45.9552Z" fill="black"/>
<path d="M29.2432 51.0405L27.2745 53.201C27.0897 53.4034 26.8392 53.517 26.578 53.5169H24.1872C24.442 52.8647 24.6093 52.4367 24.6093 52.4367H21.7768C20.8181 52.4377 19.8924 52.0534 19.1743 51.3564H26.1708L27.8504 49.5119C28.0351 49.3092 28.2856 49.1953 28.5468 49.1953C28.808 49.1953 29.0585 49.3092 29.2432 49.5119C29.428 49.7146 29.5317 49.9895 29.5317 50.2762C29.5317 50.5628 29.428 50.8378 29.2432 51.0405V51.0405Z" fill="black"/>
<path d="M20.6718 43.7947V45.1003C20.6718 45.6135 20.4861 46.1057 20.1554 46.4687C19.8247 46.8316 19.3761 47.0354 18.9085 47.0354H17.4726L17.3459 46.4791C17.2733 46.1606 17.2679 45.8282 17.3299 45.507C17.392 45.1859 17.5199 44.8845 17.704 44.6257C17.8881 44.3669 18.1235 44.1576 18.3924 44.0136C18.6612 43.8696 18.9564 43.7947 19.2556 43.7947H20.6718Z" fill="black"/>
<path d="M23.7253 63.8117C23.5426 63.8116 23.3635 63.7556 23.2081 63.6501C23.0527 63.5446 22.9271 63.3936 22.8455 63.2142C22.7638 63.0348 22.7292 62.834 22.7457 62.6343C22.7621 62.4345 22.8289 62.2438 22.9386 62.0833C24.1127 60.3665 25.0264 58.4528 25.6444 56.4162C25.6843 56.2803 25.7484 56.1545 25.8329 56.0459C25.9174 55.9374 26.0207 55.8484 26.1367 55.7839C26.2528 55.7194 26.3794 55.6809 26.5091 55.6704C26.6388 55.6599 26.7692 55.6778 26.8926 55.7229C27.016 55.7681 27.13 55.8396 27.2281 55.9334C27.3261 56.0272 27.4063 56.1414 27.4639 56.2694C27.5215 56.3974 27.5554 56.5367 27.5636 56.6791C27.5719 56.8216 27.5544 56.9645 27.512 57.0994C26.8271 59.3563 25.8146 61.477 24.5136 63.3796C24.4219 63.514 24.3029 63.623 24.1661 63.698C24.0292 63.7731 23.8783 63.812 23.7253 63.8117V63.8117Z" fill="black"/>
<path d="M31.5 18.9488C32.4254 18.6103 33.2725 18.0546 33.9823 17.3202C34.6921 16.5859 35.2474 15.6906 35.6098 14.6967L36.4219 12.4672L31.5 11.387V18.9488Z" fill="#834B10"/>
<path d="M36.4219 12.4672L36.5372 12.6569C37.7129 14.5924 39.3059 16.1793 41.1747 17.2769C43.0435 18.3745 45.1304 18.9488 47.25 18.9488V11.387L36.4219 12.4672Z" fill="#834B10"/>
<path d="M35.3555 23.4499C36.035 23.4499 36.5859 22.8453 36.5859 22.0996C36.5859 21.3538 36.035 20.7493 35.3555 20.7493C34.6759 20.7493 34.125 21.3538 34.125 22.0996C34.125 22.8453 34.6759 23.4499 35.3555 23.4499Z" fill="black"/>
<path d="M40.6055 23.4499C41.285 23.4499 41.8359 22.8453 41.8359 22.0996C41.8359 21.3538 41.285 20.7493 40.6055 20.7493C39.9259 20.7493 39.375 21.3538 39.375 22.0996C39.375 22.8453 39.9259 23.4499 40.6055 23.4499Z" fill="black"/>
<path d="M45.2812 47.0355C45.0202 47.0355 44.7698 46.9217 44.5852 46.7191C44.4006 46.5165 44.2969 46.2418 44.2969 45.9553V38.3935C44.2969 38.107 44.4006 37.8322 44.5852 37.6296C44.7698 37.427 45.0202 37.3132 45.2812 37.3132C45.5423 37.3132 45.7927 37.427 45.9773 37.6296C46.1619 37.8322 46.2656 38.107 46.2656 38.3935V45.9553C46.2656 46.2418 46.1619 46.5165 45.9773 46.7191C45.7927 46.9217 45.5423 47.0355 45.2812 47.0355Z" fill="#C3C3C3"/>
<path d="M45.2812 52.4369C46.9122 52.4369 48.2344 50.9859 48.2344 49.1961C48.2344 47.4063 46.9122 45.9553 45.2812 45.9553C43.6503 45.9553 42.3281 47.4063 42.3281 49.1961C42.3281 50.9859 43.6503 52.4369 45.2812 52.4369Z" fill="#E4E4E2"/>
<path d="M45.2812 50.2762C45.8249 50.2762 46.2656 49.7926 46.2656 49.196C46.2656 48.5994 45.8249 48.1157 45.2812 48.1157C44.7376 48.1157 44.2969 48.5994 44.2969 49.196C44.2969 49.7926 44.7376 50.2762 45.2812 50.2762Z" fill="#C3C3C3"/>
<path d="M49.2188 66.4802H34.4531C33.6699 66.4802 32.9188 66.1387 32.365 65.531C31.8111 64.9232 31.5 64.0989 31.5 63.2394C31.5 62.3799 31.8111 61.5556 32.365 60.9478C32.9188 60.3401 33.6699 59.9986 34.4531 59.9986H35.4375C35.4375 59.4256 35.6449 58.8761 36.0141 58.4709C36.3833 58.0658 36.8841 57.8381 37.4062 57.8381H37.5752C38.0973 57.8381 38.598 58.0658 38.9672 58.4709L40.3594 59.9986H49.2188V66.4802Z" fill="#F6BB92"/>
<path d="M16.4745 61.4652C16.329 61.8187 16.2548 62.2026 16.2569 62.5905C16.259 62.9784 16.3374 63.3612 16.4867 63.7128C16.636 64.0644 16.8527 64.3765 17.122 64.6278C17.3913 64.8791 17.7069 65.0636 18.0471 65.1687L21.8362 66.3435C22.5899 66.5772 23.3973 66.4728 24.0809 66.0533C24.7644 65.6337 25.2681 64.9334 25.4811 64.1063C25.694 63.2792 25.5989 62.3932 25.2166 61.6432C24.8342 60.8931 24.1961 60.3404 23.4425 60.1066L22.495 59.8129C22.5653 59.5399 22.586 59.2544 22.5557 58.9726C22.5255 58.6908 22.445 58.4183 22.3188 58.1707C22.1926 57.9231 22.0232 57.7051 21.8202 57.5293C21.6173 57.3536 21.3848 57.2234 21.136 57.1462L20.9734 57.0958C20.7246 57.0187 20.4644 56.996 20.2076 57.0292C19.9509 57.0624 19.7026 57.1508 19.4769 57.2893C18.361 57.9744 17.4747 59.0342 16.9484 60.3131L16.4745 61.4652Z" fill="#F6BB92"/>
<path d="M11.4496 26.5105C12.3914 26.5106 13.2946 26.9868 13.9606 27.8343L15.7498 30.1115L17.5389 27.8343C18.2049 26.9868 19.1081 26.5106 20.0499 26.5105C20.8419 26.5105 21.6113 26.8474 22.2356 27.4678C22.8598 28.0882 23.3033 28.9564 23.4953 29.9343C23.7126 31.04 23.6558 32.2042 23.3329 33.2673C23.01 34.3303 22.4367 35.2403 21.6916 35.8726L15.75 40.9139L9.8084 35.8726C9.06327 35.2404 8.48997 34.3304 8.16706 33.2673C7.84416 32.2042 7.78745 31.04 8.0047 29.9343C8.19674 28.9565 8.64009 28.0884 9.26427 27.468C9.88845 26.8477 10.6576 26.5106 11.4496 26.5105V26.5105Z" fill="#5D62B5"/>
<path d="M31.5 18.9487H32.4844V25.4303H31.5V18.9487Z" fill="#EEB58E"/>
<path d="M46.2656 18.9487H47.25V25.4303H46.2656V18.9487Z" fill="#EEB58E"/>
<path d="M35.5596 37.4315L39.375 41.6342L43.1507 37.4636C42.9209 37.4216 42.712 37.2915 42.5614 37.0963C42.4108 36.9012 42.3281 36.6538 42.3281 36.3981V32.9922H36.4219V36.3596C36.4219 36.6229 36.3342 36.8771 36.1755 37.0745C36.0167 37.2719 35.7976 37.3988 35.5596 37.4315V37.4315Z" fill="#F6BB92"/>
<path d="M39.375 35.1526C36.5902 35.1526 33.9195 34.0904 31.9504 32.1995C29.9812 30.3087 28.875 27.7442 28.875 25.0702V23.6299H49.875V25.0702C49.875 27.7442 48.7688 30.3087 46.7996 32.1995C44.8305 34.0904 42.1598 35.1526 39.375 35.1526Z" fill="#5D62B5"/>
<path d="M27.5625 45.9552C28.1062 45.9552 28.5469 45.4715 28.5469 44.8749C28.5469 44.2783 28.1062 43.7947 27.5625 43.7947C27.0188 43.7947 26.5781 44.2783 26.5781 44.8749C26.5781 45.4715 27.0188 45.9552 27.5625 45.9552Z" fill="black"/>
</svg>
