<svg width="63" height="70" viewBox="0 0 63 70" fill="none" xmlns="http://www.w3.org/2000/svg">
<path d="M58.3836 6.34595H4.61638C3.51657 6.34595 2.625 7.3286 2.625 8.54075V50.2421C2.625 51.4542 3.51657 52.4369 4.61638 52.4369H58.3836C59.4834 52.4369 60.375 51.4542 60.375 50.2421V8.54075C60.375 7.3286 59.4834 6.34595 58.3836 6.34595Z" fill="#5D62B5"/>
<path d="M27.5625 27.2308L21.6562 33.7123C21.4803 33.6164 21.3097 33.5124 21.1444 33.4004C20.1658 32.7486 19.3449 31.8475 18.7511 30.7735C18.1574 29.6995 17.8083 28.4843 17.7335 27.2308C17.7237 27.062 17.7188 26.8918 17.7188 26.7203V23.99H23.625L27.5625 27.2308Z" fill="#F3AF3E"/>
<path d="M25.5936 30.4715L23.1327 32.0919L21.1443 33.4003C20.1657 32.7485 19.3448 31.8474 18.751 30.7734C18.1573 29.6995 17.8082 28.4842 17.7334 27.2307H22.7303L25.1088 29.9233L25.5936 30.4715Z" fill="#5B3726"/>
<path d="M45.2812 23.99V26.7203C45.2812 26.8918 45.2763 27.062 45.2665 27.2308C45.1848 28.5928 44.7797 29.9077 44.0916 31.0447C43.4034 32.1818 42.4561 33.1014 41.3438 33.7123L35.4375 27.2308L39.375 23.99H45.2812Z" fill="#F3AF3E"/>
<path d="M45.2665 27.2307C45.1968 28.399 44.8889 29.5353 44.3654 30.5554C43.8419 31.5756 43.1162 32.4537 42.242 33.1249L39.375 31.5517L37.4062 30.4715L37.8911 29.9233L40.2695 27.2307H45.2665Z" fill="#5B3726"/>
<path d="M42.3281 35.8728V49.9161H20.6719V35.8728C20.6719 32.7213 21.8127 29.6988 23.8434 27.4704C25.874 25.2419 28.6282 23.99 31.5 23.99C34.3718 23.99 37.126 25.2419 39.1566 27.4704C41.1873 29.6988 42.3281 32.7213 42.3281 35.8728V35.8728Z" fill="#F3AF3E"/>
<path d="M26.2686 31.6238L29.2227 30.5443L29.8448 32.5948L26.8907 33.6742L26.2686 31.6238Z" fill="#D18D28"/>
<path d="M33.1572 32.5588L33.7794 30.5084L36.7335 31.5879L36.1113 33.6383L33.1572 32.5588Z" fill="#D18D28"/>
<path d="M37.6307 39.9658L36.7502 38.0335C35.9701 38.4587 33.3197 40.8176 32.4851 40.544V38.0334H30.5164V40.545C29.6817 40.8183 27.0303 38.4586 26.2502 38.0334L25.3696 39.9658C26.0454 40.3347 28.5374 42.8194 29.2915 42.8558C30.0455 42.8922 30.7981 42.7548 31.5007 42.4525C32.2035 42.7547 32.9561 42.892 33.7101 42.8555C34.4641 42.8189 36.955 40.3348 37.6307 39.9658Z" fill="#744630"/>
<path d="M23.625 46.6753C23.6256 47.0546 23.5348 47.4273 23.3617 47.7556H20.6719V43.4346C21.4551 43.4346 22.2062 43.776 22.76 44.3838C23.3139 44.9915 23.625 45.8158 23.625 46.6753Z" fill="#D18D28"/>
<path d="M42.3281 43.4346V47.7556H39.6383C39.4652 47.4273 39.3744 47.0546 39.375 46.6753C39.375 45.8158 39.6861 44.9915 40.24 44.3838C40.7938 43.776 41.5449 43.4346 42.3281 43.4346Z" fill="#D18D28"/>
<path d="M20.6719 48.8358H18.7031C18.181 48.8358 17.6802 48.6082 17.311 48.203C16.9418 47.7979 16.7344 47.2483 16.7344 46.6753C16.7344 45.8158 17.0455 44.9915 17.5993 44.3838C18.1531 43.776 18.9043 43.4346 19.6875 43.4346C20.4707 43.4346 21.2219 43.776 21.7757 44.3838C22.3295 44.9915 22.6406 45.8158 22.6406 46.6753C22.6406 47.2483 22.4332 47.7979 22.064 48.203C21.6948 48.6082 21.194 48.8358 20.6719 48.8358Z" fill="#F3AF3E"/>
<path d="M44.2969 48.8358H42.3281C41.806 48.8358 41.3052 48.6082 40.936 48.203C40.5668 47.7979 40.3594 47.2483 40.3594 46.6753C40.3594 45.8158 40.6705 44.9915 41.2243 44.3838C41.7781 43.776 42.5293 43.4346 43.3125 43.4346C44.0957 43.4346 44.8469 43.776 45.4007 44.3838C45.9545 44.9915 46.2656 45.8158 46.2656 46.6753C46.2656 47.2483 46.0582 47.7979 45.689 48.203C45.3198 48.6082 44.819 48.8358 44.2969 48.8358Z" fill="#F3AF3E"/>
<path d="M31.5 39.1135C30.9779 39.1135 30.4771 38.8859 30.1079 38.4807C29.7387 38.0755 29.5312 37.526 29.5312 36.953V34.7925H33.4688V36.953C33.4688 37.526 33.2613 38.0755 32.8921 38.4807C32.5229 38.8859 32.0221 39.1135 31.5 39.1135Z" fill="#5B3726"/>
<path d="M40.3594 59.2783H22.6406L22.8092 59.0933C24.5912 57.1363 25.5927 54.4832 25.5938 51.7166H37.4062C37.4064 54.4834 38.408 57.1369 40.1908 59.0933L40.3594 59.2783Z" fill="#D9D9D9"/>
<path d="M58.3836 52.4367H4.61638C4.08823 52.4367 3.58172 52.1939 3.20826 51.7617C2.83481 51.3295 2.625 50.7433 2.625 50.1321V46.6753H60.375V50.1321C60.375 50.7433 60.1652 51.3295 59.7917 51.7617C59.4183 52.1939 58.9118 52.4367 58.3836 52.4367Z" fill="#E4E4E2"/>
<path d="M22.6406 59.2783H40.3594C40.8815 59.2783 41.3823 59.5059 41.7515 59.9111C42.1207 60.3163 42.3281 60.8658 42.3281 61.4388V63.5993H20.6719V61.4388C20.6719 60.8658 20.8793 60.3163 21.2485 59.9111C21.6177 59.5059 22.1185 59.2783 22.6406 59.2783V59.2783Z" fill="#E4E4E2"/>
<path d="M37.6127 53.8771H25.3867C25.5243 53.1668 25.5935 52.4427 25.5934 51.7166H37.4059C37.4058 52.4427 37.4751 53.1668 37.6127 53.8771V53.8771Z" fill="#A8A8A8"/>
<ellipse cx="55.125" cy="12.1072" rx="2.625" ry="2.88068" fill="#62B58F"/>
</svg>
